/* XPM */
static char *bf38a76d14b8451edf2d1a19a9717243[] = {
/* columns rows colors chars-per-pixel */
"96 96 39 1 ",
"  c #272727",
". c gray19",
"X c #3C3C3C",
"o c #3E3E3E",
"O c #3F3F3F",
"+ c #414141",
"@ c #464646",
"# c gray28",
"$ c #484848",
"% c #494949",
"& c gray29",
"* c #4B4B4B",
"= c #4C4C4C",
"- c gray30",
"; c #4E4E4E",
": c gray31",
"> c gray32",
", c #565656",
"< c #5B5B5B",
"1 c gray36",
"2 c gray37",
"3 c #5F5F5F",
"4 c #606060",
"5 c #626262",
"6 c #646464",
"7 c #656565",
"8 c #676767",
"9 c #686868",
"0 c DimGray",
"q c #767676",
"w c gray48",
"e c gray62",
"r c #9F9F9F",
"t c gray65",
"y c #A7A7A7",
"u c #CECECE",
"i c #FEFEFE",
"p c gray100",
"a c None",
/* pixels */
"aaaaaaaaaaaaaaaaaaaaaaaaaaaaaaaaaaaaaaaaaaaaaaaaaaaaaaaaaaaaaaaaaaaaaaaaaaaaaaaaaaaaaaaaaaaaaaaa",
"aaaaaaaaaaaaaaaaaaaaaaaaaaaaaaaaaaaaaaaaaaaaaaaaaaaaaaaaaaaaaaaaaaaaaaaaaaaaaaaaaaaaaaaaaaaaaaaa",
"aaaaaaaaaaaaaaaaaaaaaaaaaaaaaaaaaaaaaaaaaaaaaaaaaaaaaaaaaaaaaaaaaaaaaaaaaaaaaaaaaaaaaaaaaaaaaaaa",
"aaaaaaaaaaaaaaaaaaaaaaaaaaaaaaaaaaaaaaaaaaaaaaaaaaaaaaaaaaaaaaaaaaaaaaaaaaaaaaaaaaaaaaaaaaaaaaaa",
"aaaaaaaaaaaaaaaaaaaaaaaaaaaaaaaaaaaaaaaaaaaaaaaaaaaaaaaaaaaaaaaaaaaaaaaaaaaaaaaaaaaaaaaaaaaaaaaa",
"aaaaaaaaaaaaaaaaaaaaaaaaaaaaaaaaaaaaaaaaaaaaaaaaaaaaaaaaaaaaaaaaaaaaaaaaaaaaaaaaaaaaaaaaaaaaaaaa",
"aaaaaaaaaaaaaaaaaaaaaaaaaaaaaaaaaaaaaaaaaaaaaaaaaaaaaaaaaaaaaaaaaaaaaaaaaaaaaaaaaaaaaaaaaaaaaaaa",
"aaaaaaaaaaaaaaaaaaaaaaaaaaaaaaaaaaaaaaaaaaaaaaaaaaaaaaaaaaaaaaaaaaaaaaaaaaaaaaaaaaaaaaaaaaaaaaaa",
"aaaaaaaaaaaaaaaaaaaaaaaaaaaaaaaaaaaaaaaaaaaaaaaaaaaaaaaaaaaaaaaaaaaaaaaaaaaaaaaaaaaaaaaaaaaaaaaa",
"aaaaaaaaaaaaaaaaaaaaaaaaaaaaaaaaaaaaaaaaaaaaaaaaaaaaaaaaaaaaaaaaaaaaaaaaaaaaaaaaaaaaaaaaaaaaaaaa",
"aaaaaaaaaaaaaaaaaaaaaaaaaaaaaaaaaaaaaaaaaaaaaaaaaaaaaaaaaaaaaaaaaaaaaaaaaaaaaaaaaaaaaaaaaaaaaaaa",
"aaaaaaaaaaaaaaaaaaa24444444444224444444244444442444444448aaaaaaaaaaaaaaaaaaaaaaaaaaaaaaaaaaaaaaa",
"aaaaaaaaaaaaaaaaaa2<>:*:::::::::>::::*:::::::*::::::*::<80aaaaaaaaaaaaaaaaaaaaaaaaaaaaaaaaaaaaaa",
"aaaaaaaaaaaaaaaaaa<::::::::::::*:::::::::::*::*::::*:::<000aaaaaaaaaaaaaaaaaaaaaaaaaaaaaaaaaaaaa",
"aaaaaaaaaaaaaaaaaa>::::::::::::::::::::::::::::::::::::20000aaaaaaaaaaaaaaaaaaaaaaaaaaaaaaaaaaaa",
"aaaaaaaaaaaaaaaaaa:*:::*::::::::::*::*:::::::::::::::::<80800aaaaaaaaaaaaaaaaaaaaaaaaaaaaaaaaaaa",
"aaaaaaaaaaaaaaaaaa:::::*:wt:::tw::*::wt*::*::*::*::::::<800800aaaaaaaaaaaaaaaaaaaaaaaaaaaaaaaaaa",
"aaaaaaaaaaaaaaaaaa::::::>yi:::it:::::ti::::::::::::::::<0000000aaaaaaaaaaaaaaaaaaaaaaaaaaaaaaaaa",
"aaaaaaaaaaaaaaaaaa::::::iiiiiiiii::::ti:::::::::::::*::<80080800aaaaaaaaaaaaaaaaaaaaaaaaaaaaaaaa",
"aaaaaaaaaaaaaaaaaa::::*:euieeeiue::::ti:::*:::::*::*:::<808000800aaaaaaaaaaaaaaaaaaaaaaaaaaaaaaa",
"aaaaaaaaaaaaaaaaaa::::::OeiOOOieO::::ti::::::::::::::::<0000000000aaaaaaaaaaaaaaaaaaaaaaaaaaaaaa",
"aaaaaaaaaaaaaaaaaa:::::*:ti>::it::*::ti:*:::::*::::::::<00800080080aaaaaaaaaaaaaaaaaaaaaaaaaaaaa",
"aaaaaaaaaaaaaaaaaa::*::::ti:::it:::::ti::::*:::::*::*::<800808008000aaaaaaaaaaaaaaaaaaaaaaaaaaaa",
"aaaaaaaaaaaaaaaaaa:::::::ti:::it:::::ti::::::::::::::::<0000000000000aaaaaaaaaaaaaaaaaaaaaaaaaaa",
"aaaaaaaaaaaaaaaaaa::::*:iiiiiiiii:::*@O:::::::*::::::::<00800080800080aaaaaaaaaaaaaaaaaaaaaaaaaa",
"aaaaaaaaaaaaaaaaaa::::::euieeeiue*:::qe:::*::*:::*:::::<800808000808000aaaaaaaaaaaaaaaaaaaaaaaaa",
"aaaaaaaaaaaaaaaaaa::::::OeiOOOieO:::>ti::::::::::::::::<0000000000000000aaaaaaaaaaaaaaaaaaaaaaaa",
"aaaaaaaaaaaaaaaaaa::::*::@O:::O@:::::+O:*::::::::*::*:*<00800080080080080aaaaaaaaaaaaaaaaaaaaaaa",
"aaaaaaaaaaaaaaaaaa:::::::*+:::@*::*::*@:::*::::::::*:::<800808008008008000aaaaaaaaaaaaaaaaaaaaaa",
"aaaaaaaaaaaaaaaaaa:::::::::::::::::::::::::::::::::::::<0000000000000000000aaaaaaaaaaaaaaaaaaaaa",
"aaaaaaaaaaaaaaaaaa:::::*:::::*::::::*::*::::::*::*:::::>00800080800080080800aaaaaaaaaaaaaaaaaaaa",
"aaaaaaaaaaaaaaaaaa::*:::::::::::::::::::::*::*::::::*::*<00808000808008000800aaaaaaaaaaaaaaaaaaa",
"aaaaaaaaaaaaaaaaaa:::::::::::::::::::::::::::::::::::::*+,88080088000080080004aaaaaaaaaaaaaaaaaa",
"aaaaaaaaaaaaaaaaaa:::::::::::*:::*::*:::::*:::::::::*:::*OOOOOOOOOOOOOOOOOOO+*aaaaaaaaaaaaaaaaaa",
"aaaaaaaaaaaaaaaaaa::*::*::*::::::::::*:::::*::*::::*:::::*@@@@@@@@@@@@@@@@@@@*aaaaaaaaaaaaaaaaaa",
"aaaaaaaaaaaaaaaaaa::::::::::::::::::::::::::::::::::::::::::::::::::::::::::::aaaaaaaaaaaaaaaaaa",
"aaaaaaaaaaaaaaaaaa::::::::::::::::*:::::::*::::::*::*::*:::*:::::*:::::*::*:::aaaaaaaaaaaaaaaaaa",
"aaaaaaaaaaaaaaaaaa::::*::*:::*:*:::::*:::::::*::::::::::*:::::::::::*:::::::*:aaaaaaaaaaaaaaaaaa",
"aaaaaaaaaaaaaaaaaa::::::::::::::::::::::::::::::::::::::::::::::::::::::::::::aaaaaaaaaaaaaaaaaa",
"aaaaaaaaaaaaaaaaaa::*:::::*::::::*:::::*::*::::::*:::::*:::::*::*:::::::::::::aaaaaaaaaaaaaaaaaa",
"aaaaaaaaaaaaaaaaaa::::*:::::*::*:::::*:::::::::::::*:::*:::::*::*:::*::*::::::aaaaaaaaaaaaaaaaaa",
"aaaaaaaaaaaaaaaaaa:::::::*::::::::*:::::*:*:::*:*:::*:::::*::::::::::::::*::::aaaaaaaaaaaaaaaaaa",
"aaaaaaaaaaaaaaaaaa::::::::::::::::::::::::::::::::::::::::::::::::::::::::::::aaaaaaaaaaaaaaaaaa",
"aaaaaaaaaaaaaaaaaa:::::*::::*:::::::*::::::::*::::::::::*::::*:::*:::::*::::*:aaaaaaaaaaaaaaaaaa",
"aaaaaaaaaaaaaaaaaa::::*::*::::::::*:::::*::*:::::*:::::*::*:::::*:::::::::*::*aaaaaaaaaaaaaaaaaa",
"aaaaaaaaaaaaaaaaaa::::::::::::::::::::::::::::::::::::::::::::::::::::::::::::aaaaaaaaaaaaaaaaaa",
"aaaaaaaaaaaaaaaaaa::::::::*:*::*:::::::*::::::*:::::::::::::::::::::*::*:*::::aaaaaaaaaaaaaaaaaa",
"aaaaaaaaaaaaaaaaaa:*:::*:::::::::*::*:::::*::::::*::*::*::*:::*::*::::::::::::aaaaaaaaaaaaaaaaaa",
"aaaaaaaaaaaaaaaaaa::::::::::::::::::::::::::::::::::::::::::::::::::::::::::::aaaaaaaaaaaaaaaaaa",
"aaaaaaaaaaaaaaaaaa:::::*:::::*::::*:*:::::*:::::*:::::*::::::*:::::*::::::*:::aaaaaaaaaaaaaaaaaa",
"aaaaaaaaaaaaaaaaaa::::::::*::::::::::::::::::*:::*:::::*::*:::::*::::::*::::::aaaaaaaaaaaaaaaaaa",
"aaaaaaaaaaaaaaaaaa::::::::::::::::::::::::::::::::::::::::::::::::::::::::::::aaaaaaaaaaaaaaaaaa",
"aaaaaaaaaaaaaaaaaa:::::*::::*::*:*:::::*::::::::::::::::*::::::::*:::::*::*:::aaaaaaaaaaaaaaaaaa",
"aaaaaaaaaaaaaaaaaa::*:::::::::::::::*:::*:*:::*::*::*::*:::*:*::::::*::::*::*:aaaaaaaaaaaaaaaaaa",
"aaaaaaaaaaaaaaaaaa::::::::::::::::::::::::::::::::::::::::::::::::::::::::::::aaaaaaaaaaaaaaaaaa",
"aaaaaaaaaaaaaaaaaa:::::::*::*::::*:::::*:::::*:::::*::::::::::*:*:::::::::::::aaaaaaaaaaaaaaaaaa",
"aaaaaaaaaaaaaaaaaa:::::*:*::*::::::::*:::::*::::::::*::::::::*::::::*::*:*::::aaaaaaaaaaaaaaaaaa",
"aaaaaaaaaaaaaaaaaa::::::::::::::::::::::::::::::::::::::::::::::::::::::::::::aaaaaaaaaaaaaaaaaa",
"aaaaaaaaaaaaaaaaaa::::::::::::::::*:::::::::::*:*::*::*:*::::::::*:*::::::::::aaaaaaaaaaaaaaaaaa",
"aaaaaaaaaaaaaaaaaa::::*:::::*::*:::::*::*::*:::::::::::::::*:*::::::::*:::::*:aaaaaaaaaaaaaaaaaa",
"aaaaaaaaaaaaaaaaaa::::::::::::::::::::::::::::::::::::::::::::::::::::::::::::aaaaaaaaaaaaaaaaaa",
"aaaaaaaaaaaaaaaaaa::::::::*::::::*::*::::::::*::*:::::*::::*:::::*::::::::*:::aaaaaaaaaaaaaaaaaa",
"aaaaaaaaaaaaaaaaaa::*::*:::::*:::::::*::*::::::::*:::::*::::::*:::::*::*::::::aaaaaaaaaaaaaaaaaa",
"aaaaaaaaaaaaaaaaaa::::::::::::::::::::::::::::::::::::::::::::::::::::::::::::aaaaaaaaaaaaaaaaaa",
"aaaaaaaaaaaaaaaaaa:::::::*:::::*::*::::::::*:::::*::*::::::*:::::*::*:::::*:::aaaaaaaaaaaaaaaaaa",
"aaaaaaaaaaaaaaaaaa::::::::::::::::::::::::::::::::::::::::::::::::::::::::::::aaaaaaaaaaaaaaaaaa",
"aaaaaaaaaaaaaaaaaa::*::*:::::*:::::::::*:::::*:::*:::::*::::::*::*:::::*::::::aaaaaaaaaaaaaaaaaa",
"aaaaaaaaaaaaaaaaaa::::::::*:::::::*:*:::::*:::::::::*:::*::*::::::::*:::::*:*:aaaaaaaaaaaaaaaaaa",
"aaaaaaaaaaaaaaaaaa::::::::::::::::::::::::::::::::::::::::::::::::::::::::::::aaaaaaaaaaaaaaaaaa",
"aaaaaaaaaaaaaaaaaa:::::::::::*::::::*:::::*:::*::::*:::::::::*:::::*::::::::::aaaaaaaaaaaaaaaaaa",
"aaaaaaaaaaaaaaaaaa:::::*:*::*::::*::::::*::::::::*::::*:*::::::::*::::*::*::::aaaaaaaaaaaaaaaaaa",
"aaaaaaaaaaaaaaaaaa::::::::::::::::::::::::::::::::::::::::::::::::::::::::::::aaaaaaaaaaaaaaaaaa",
"aaaaaaaaaaaaaaaaaa::::*:::::::::::::*::*:::*::*::*::*::*:::*::*::*::*::*:::::*aaaaaaaaaaaaaaaaaa",
"aaaaaaaaaaaaaaaaaa::::::::::*::*:*::::::*:::::::::::::::::::::::::::::::::*:::aaaaaaaaaaaaaaaaaa",
"aaaaaaaaaaaaaaaaaa::::::::::::::::::::::::::::::::::::::::::::::::::::::::::::aaaaaaaaaaaaaaaaaa",
"aaaaaaaaaaaaaaaaaa::*::*::*:::::::::*::::::::*:::*:::::*::*:::*::*:::::*::::::aaaaaaaaaaaaaaaaaa",
"aaaaaaaaaaaaaaaaaa:::::::*::*::::*:::::::::*::::::::::::::*:::::::::::::::*:::aaaaaaaaaaaaaaaaaa",
"aaaaaaaaaaaaaaaaaa::::::::::::::::::::::::::::::::::::::::::::::::::::::::::::aaaaaaaaaaaaaaaaaa",
"aaaaaaaaaaaaaaaaaa::*::*::::::::::*:*::*:::::*::*:::*:::::*::*::*:::*:::::::::aaaaaaaaaaaaaaaaaa",
"aaaaaaaaaaaaaaaaaa::::::::::*::*::::::::::*::::::::*:::*:::::::::::*:::*:*::*:aaaaaaaaaaaaaaaaaa",
"aaaaaaaaaaaaaaaaaa::::::::::::::::::::::::::::::::::::::::::::::::::::::::::::aaaaaaaaaaaaaaaaaa",
"aaaaaaaaaaaaaaaaaa:::::::*:::::*::*:::::::*:::*:*:::::*:::::::::*:::::*:::::::aaaaaaaaaaaaaaaaaa",
"aaaaaaaaaaaaaaaaaa*:*::::::::*:::::::::*::::::::::::::::*::*::::::::::::::*::*aaaaaaaaaaaaaaaaaa",
"aaaaaaaaaaaaaaaaaa.:::::::*:::::::::*:::::*:::::*::*:::::::::*::*::*:::::*:::.aaaaaaaaaaaaaaaaaa",
"aaaaaaaaaaaaaaaaaaaO::::::::::::::::::::::::::::::::::::::::::::::::::::::::Oaaaaaaaaaaaaaaaaaaa",
"aaaaaaaaaaaaaaaaaaaaa                                                      aaaaaaaaaaaaaaaaaaaaa",
"aaaaaaaaaaaaaaaaaaaaaaaaaaaaaaaaaaaaaaaaaaaaaaaaaaaaaaaaaaaaaaaaaaaaaaaaaaaaaaaaaaaaaaaaaaaaaaaa",
"aaaaaaaaaaaaaaaaaaaaaaaaaaaaaaaaaaaaaaaaaaaaaaaaaaaaaaaaaaaaaaaaaaaaaaaaaaaaaaaaaaaaaaaaaaaaaaaa",
"aaaaaaaaaaaaaaaaaaaaaaaaaaaaaaaaaaaaaaaaaaaaaaaaaaaaaaaaaaaaaaaaaaaaaaaaaaaaaaaaaaaaaaaaaaaaaaaa",
"aaaaaaaaaaaaaaaaaaaaaaaaaaaaaaaaaaaaaaaaaaaaaaaaaaaaaaaaaaaaaaaaaaaaaaaaaaaaaaaaaaaaaaaaaaaaaaaa",
"aaaaaaaaaaaaaaaaaaaaaaaaaaaaaaaaaaaaaaaaaaaaaaaaaaaaaaaaaaaaaaaaaaaaaaaaaaaaaaaaaaaaaaaaaaaaaaaa",
"aaaaaaaaaaaaaaaaaaaaaaaaaaaaaaaaaaaaaaaaaaaaaaaaaaaaaaaaaaaaaaaaaaaaaaaaaaaaaaaaaaaaaaaaaaaaaaaa",
"aaaaaaaaaaaaaaaaaaaaaaaaaaaaaaaaaaaaaaaaaaaaaaaaaaaaaaaaaaaaaaaaaaaaaaaaaaaaaaaaaaaaaaaaaaaaaaaa",
"aaaaaaaaaaaaaaaaaaaaaaaaaaaaaaaaaaaaaaaaaaaaaaaaaaaaaaaaaaaaaaaaaaaaaaaaaaaaaaaaaaaaaaaaaaaaaaaa",
"aaaaaaaaaaaaaaaaaaaaaaaaaaaaaaaaaaaaaaaaaaaaaaaaaaaaaaaaaaaaaaaaaaaaaaaaaaaaaaaaaaaaaaaaaaaaaaaa",
"aaaaaaaaaaaaaaaaaaaaaaaaaaaaaaaaaaaaaaaaaaaaaaaaaaaaaaaaaaaaaaaaaaaaaaaaaaaaaaaaaaaaaaaaaaaaaaaa"
};
